<svg xmlns="http://www.w3.org/2000/svg" width="900" height="560" viewBox="0 0 900 560">
<rect width="100%" height="100%" fill="#ffffff"/>
<text x="82" y="32" font-family="Arial" font-size="22" font-weight="700" fill="#222">Average Latency under Increasing Request Rate</text>
<line x1="82" y1="456" x2="856" y2="456" stroke="#333"/>
<line x1="82" y1="58" x2="82" y2="456" stroke="#333"/>
<line x1="82" y1="456.0" x2="856" y2="456.0" stroke="#e5e5e5"/>
<text x="72" y="460.0" font-family="Arial" font-size="12" text-anchor="end" fill="#444">0.0</text>
<line x1="82" y1="376.4" x2="856" y2="376.4" stroke="#e5e5e5"/>
<text x="72" y="380.4" font-family="Arial" font-size="12" text-anchor="end" fill="#444">2.7</text>
<line x1="82" y1="296.8" x2="856" y2="296.8" stroke="#e5e5e5"/>
<text x="72" y="300.8" font-family="Arial" font-size="12" text-anchor="end" fill="#444">5.3</text>
<line x1="82" y1="217.2" x2="856" y2="217.2" stroke="#e5e5e5"/>
<text x="72" y="221.2" font-family="Arial" font-size="12" text-anchor="end" fill="#444">8.0</text>
<line x1="82" y1="137.6" x2="856" y2="137.6" stroke="#e5e5e5"/>
<text x="72" y="141.6" font-family="Arial" font-size="12" text-anchor="end" fill="#444">10.6</text>
<line x1="82" y1="58.0" x2="856" y2="58.0" stroke="#e5e5e5"/>
<text x="72" y="62.0" font-family="Arial" font-size="12" text-anchor="end" fill="#444">13.3</text>
<text x="82.0" y="488" font-family="Arial" font-size="12" text-anchor="middle" fill="#444">0.22</text>
<text x="236.8" y="488" font-family="Arial" font-size="12" text-anchor="middle" fill="#444">0.28</text>
<text x="391.6" y="488" font-family="Arial" font-size="12" text-anchor="middle" fill="#444">0.34</text>
<text x="546.4" y="488" font-family="Arial" font-size="12" text-anchor="middle" fill="#444">0.40</text>
<text x="701.2" y="488" font-family="Arial" font-size="12" text-anchor="middle" fill="#444">0.46</text>
<text x="856.0" y="488" font-family="Arial" font-size="12" text-anchor="middle" fill="#444">0.52</text>
<polyline fill="none" stroke="#8f3f2f" stroke-width="3" points="82.0,370.5 236.8,371.9 391.6,362.5 546.4,257.0 701.2,87.5 856.0,189.2"/>
<circle cx="82.0" cy="370.5" r="4.5" fill="#8f3f2f"/>
<circle cx="236.8" cy="371.9" r="4.5" fill="#8f3f2f"/>
<circle cx="391.6" cy="362.5" r="4.5" fill="#8f3f2f"/>
<circle cx="546.4" cy="257.0" r="4.5" fill="#8f3f2f"/>
<circle cx="701.2" cy="87.5" r="4.5" fill="#8f3f2f"/>
<circle cx="856.0" cy="189.2" r="4.5" fill="#8f3f2f"/>
<polyline fill="none" stroke="#245b7a" stroke-width="3" points="82.0,370.0 236.8,371.2 391.6,363.1 546.4,245.6 701.2,93.1 856.0,174.2"/>
<circle cx="82.0" cy="370.0" r="4.5" fill="#245b7a"/>
<circle cx="236.8" cy="371.2" r="4.5" fill="#245b7a"/>
<circle cx="391.6" cy="363.1" r="4.5" fill="#245b7a"/>
<circle cx="546.4" cy="245.6" r="4.5" fill="#245b7a"/>
<circle cx="701.2" cy="93.1" r="4.5" fill="#245b7a"/>
<circle cx="856.0" cy="174.2" r="4.5" fill="#245b7a"/>
<text x="469.0" y="518" font-family="Arial" font-size="14" text-anchor="middle" fill="#222">Request rate (requests/sec)</text>
<text transform="translate(20 257.0) rotate(-90)" font-family="Arial" font-size="14" text-anchor="middle" fill="#222">Average latency (s)</text>
<rect x="726" y="68" width="14" height="14" fill="#8f3f2f"/>
<text x="748" y="80" font-family="Arial" font-size="13" fill="#222">FCFS</text>
<rect x="726" y="94" width="14" height="14" fill="#245b7a"/>
<text x="748" y="106" font-family="Arial" font-size="13" fill="#222">SLO-aware</text>
<text x="82" y="540" font-family="Arial" font-size="10.5" fill="#555">Synthetic workload generated by our group; simulation-level reproduction starter.</text>
</svg>